<?xml version="1.0" encoding="UTF-8"?>
<svg width="21px" height="18px" viewBox="0 0 21 18" version="1.1" xmlns="http://www.w3.org/2000/svg" xmlns:xlink="http://www.w3.org/1999/xlink">
    <!-- Generator: Sketch 49.3 (51167) - http://www.bohemiancoding.com/sketch -->
    <title>burger</title>
    <desc>Created with Sketch.</desc>
    <defs></defs>
    <g id="Main" stroke="none" stroke-width="1" fill="none" fill-rule="evenodd">
        <g id="burger" fill="#F03333" fill-rule="nonzero">
            <g id="Group" transform="translate(0.000000, 0.167428)">
                <path d="M19.6875,0.095069625 C20.4123675,0.095069625 21,0.682675875 21,1.40756962 C21,2.13246075 20.4123675,2.72006962 19.6875,2.72006962 L1.3125,2.72006962 C0.587632238,2.72006962 -1.3125e-07,2.13246075 -1.3125e-07,1.40756962 C-1.3125e-07,0.682675875 0.587632238,0.095069625 1.3125,0.095069625 L19.6875,0.095069625 Z M19.6875,7.18256962 C20.4123675,7.18256962 21,7.77017588 21,8.4950775 C21,9.21997125 20.4123675,9.8075775 19.6875,9.8075775 L1.3125,9.8075775 C0.587632238,9.8075775 -1.3125e-07,9.21997125 -1.3125e-07,8.4950775 C-1.3125e-07,7.77017588 0.587632238,7.18256962 1.3125,7.18256962 L19.6875,7.18256962 Z M19.6875,14.2700775 C20.4123675,14.2700775 21,14.8576837 21,15.5825775 C21,16.3074713 20.4123675,16.8950775 19.6875,16.8950775 L1.3125,16.8950775 C0.587632238,16.8950775 -1.3125e-07,16.3074713 -1.3125e-07,15.5825775 C-1.3125e-07,14.8576837 0.587632238,14.2700775 1.3125,14.2700775 L19.6875,14.2700775 Z" id="Shape"></path>
            </g>
        </g>
    </g>
</svg>