<?xml version="1.0" encoding="UTF-8"?>
<svg width="144px" height="49px" viewBox="0 0 144 49" version="1.1" xmlns="http://www.w3.org/2000/svg" xmlns:xlink="http://www.w3.org/1999/xlink">
    <!-- Generator: Sketch 49.3 (51167) - http://www.bohemiancoding.com/sketch -->
    <title>Group</title>
    <desc>Created with Sketch.</desc>
    <defs>
        <linearGradient x1="100%" y1="0%" x2="18.2666016%" y2="82.9676534%" id="linearGradient-1">
            <stop stop-color="#FF4242" offset="0%"></stop>
            <stop stop-color="#E02323" offset="100%"></stop>
        </linearGradient>
        <linearGradient x1="161.466346%" y1="43.6718762%" x2="50%" y2="43.6718762%" id="linearGradient-2">
            <stop stop-color="#EBEBEB" stop-opacity="0.845674819" offset="0%"></stop>
            <stop stop-color="#FFFFFF" offset="100%"></stop>
        </linearGradient>
    </defs>
    <g id="Page-1" stroke="none" stroke-width="1" fill="none" fill-rule="evenodd">
        <g id="Group">
            <path d="M60.9695542,16.121244 C60.8431749,17.4553686 60.3491541,18.4960274 59.487477,19.2432517 C58.6257999,19.990476 57.4797866,20.3640825 56.0494026,20.3640825 C55.0498571,20.3640825 54.1695236,20.1278945 53.4083755,19.6555113 C52.6472274,19.1831281 52.0598596,18.5117815 51.6462546,17.6414513 C51.2326496,16.7711211 51.0172335,15.7605226 51,14.6096254 L51,13.4415565 C51,12.26203 51.2096716,11.2228026 51.6290211,10.3238431 C52.0483707,9.42488366 52.6500995,8.7320654 53.4342256,8.24536759 C54.2183518,7.75866978 55.1245353,7.51532452 56.1528033,7.51532452 C57.5372312,7.51532452 58.6516502,7.8903625 59.4960938,8.64044972 C60.3405373,9.39053694 60.8316859,10.4498045 60.9695542,11.8182843 L58.7981388,11.8182843 C58.6947375,10.9193248 58.43193,10.2708812 58.0097082,9.87293419 C57.5874864,9.47498716 56.9685243,9.27601663 56.1528033,9.27601663 C55.2049585,9.27601663 54.4768523,9.62099431 53.9684628,10.31096 C53.4600733,11.0009258 53.2001379,12.0129557 53.1886489,13.3470803 L53.1886489,14.455028 C53.1886489,15.8063302 53.431351,16.8369689 53.9167624,17.5469752 C54.4021738,18.2569814 55.1130468,18.6119792 56.0494026,18.6119792 C56.9053352,18.6119792 57.5487111,18.4201658 57.9795496,18.0365335 C58.4103882,17.6529011 58.6832485,17.0144776 58.7981388,16.121244 L60.9695542,16.121244 Z M62.3223805,15.4599109 C62.3223805,14.5494997 62.50333,13.729283 62.8652344,12.9992363 C63.2271388,12.2691896 63.7355206,11.708064 64.3903952,11.3158428 C65.0452698,10.9236217 65.7977899,10.727514 66.6479779,10.727514 C67.9060265,10.727514 68.9270986,11.1311809 69.7112247,11.9385266 C70.4953509,12.7458724 70.9190024,13.8165916 70.9821921,15.1507161 L70.9908088,15.6402744 C70.9908088,16.5564115 70.8141677,17.3751967 70.4608801,18.0966546 C70.1075924,18.8181126 69.6020828,19.3763752 68.9443359,19.7714593 C68.2865891,20.1665434 67.5268885,20.3640825 66.6652114,20.3640825 C65.3497177,20.3640825 64.2970513,19.9274925 63.5071806,19.0542994 C62.7173099,18.1811062 62.3223805,17.0173433 62.3223805,15.5629758 L62.3223805,15.4599109 Z M64.4162454,15.6402744 C64.4162454,16.5964925 64.6144282,17.345137 65.0107996,17.8862305 C65.4071711,18.4273239 65.9586362,18.6978666 66.6652114,18.6978666 C67.3717866,18.6978666 67.9218156,18.4230296 68.3153148,17.8733474 C68.708814,17.3236651 68.9055607,16.5191943 68.9055607,15.4599109 C68.9055607,14.5208704 68.7030696,13.7765202 68.2980813,13.2268379 C67.8930931,12.6771557 67.3430641,12.4023187 66.6479779,12.4023187 C65.9643808,12.4023187 65.4215323,12.6728614 65.0194164,13.2139548 C64.6173004,13.7550483 64.4162454,14.5638134 64.4162454,15.6402744 Z M74.7304688,10.8992889 L74.7907858,11.8698167 C75.4456604,11.1082778 76.3417912,10.727514 77.479205,10.727514 C78.7257645,10.727514 79.578812,11.202753 80.0383732,12.1532452 C80.7162258,11.202753 81.6698008,10.727514 82.8991268,10.727514 C83.9273948,10.727514 84.6928399,11.0109397 85.1954848,11.5777995 C85.6981298,12.1446593 85.955193,12.9806218 85.966682,14.0857121 L85.966682,20.1923077 L83.8728171,20.1923077 L83.8728171,14.1458333 C83.8728171,13.5560701 83.7435675,13.1237744 83.4850643,12.8489333 C83.2265612,12.5740922 82.7986013,12.4366737 82.2011719,12.4366737 C81.7243772,12.4366737 81.3351922,12.5640721 81.0336052,12.8188727 C80.7320183,13.0736733 80.5209105,13.4071995 80.4002757,13.8194611 L80.4088925,20.1923077 L78.3150276,20.1923077 L78.3150276,14.0771234 C78.286305,12.9834848 77.7262233,12.4366737 76.6347656,12.4366737 C75.7960666,12.4366737 75.2015183,12.777357 74.8511029,13.458734 L74.8511029,20.1923077 L72.7572381,20.1923077 L72.7572381,10.8992889 L74.7304688,10.8992889 Z M96.2809053,15.6402744 C96.2809053,17.0774645 95.9534729,18.22405 95.2985983,19.0800656 C94.6437237,19.9360812 93.7648263,20.3640825 92.6618796,20.3640825 C91.6393561,20.3640825 90.8207751,20.0291249 90.2061121,19.3591997 L90.2061121,23.7652244 L88.1122472,23.7652244 L88.1122472,10.8992889 L90.0423943,10.8992889 L90.1285616,11.8440505 C90.7432246,11.0996891 91.5790388,10.727514 92.6360294,10.727514 C93.7734432,10.727514 94.6652656,11.1497896 95.3115234,11.9943535 C95.9577813,12.8389173 96.2809053,14.0112689 96.2809053,15.5114433 L96.2809053,15.6402744 Z M94.1956572,15.4599109 C94.1956572,14.5323221 94.0103994,13.7965605 93.6398782,13.2526042 C93.2693571,12.7086478 92.7394336,12.4366737 92.0500919,12.4366737 C91.1941593,12.4366737 90.5795055,12.7888086 90.2061121,13.4930889 L90.2061121,17.6156851 C90.5852501,18.337143 91.2056483,18.6978666 92.0673254,18.6978666 C92.733689,18.6978666 93.2549958,18.4301868 93.6312615,17.8948192 C94.0075272,17.3594516 94.1956572,16.5478236 94.1956572,15.4599109 Z M100.279067,20.1923077 L98.1852022,20.1923077 L98.1852022,7 L100.279067,7 L100.279067,20.1923077 Z M104.785616,20.1923077 L102.691751,20.1923077 L102.691751,10.8992889 L104.785616,10.8992889 L104.785616,20.1923077 Z M102.5625,8.48585236 C102.5625,8.16520439 102.664464,7.89895605 102.868394,7.68709936 C103.072324,7.47524266 103.363854,7.36931591 103.742992,7.36931591 C104.12213,7.36931591 104.415095,7.47524266 104.621898,7.68709936 C104.8287,7.89895605 104.9321,8.16520439 104.9321,8.48585236 C104.9321,8.80077448 104.8287,9.06272849 104.621898,9.27172226 C104.415095,9.48071602 104.12213,9.58521134 103.742992,9.58521134 C103.363854,9.58521134 103.072324,9.48071602 102.868394,9.27172226 C102.664464,9.06272849 102.5625,8.80077448 102.5625,8.48585236 Z M112.635455,20.1923077 C112.543543,20.0148061 112.463121,19.7256547 112.394187,19.3248448 C111.727823,20.0176734 110.912114,20.3640825 109.947036,20.3640825 C109.01068,20.3640825 108.246671,20.0978342 107.654986,19.5653295 C107.063301,19.0328249 106.767463,18.3743612 106.767463,17.5899189 C106.767463,16.5993457 107.136543,15.8392496 107.874713,15.3096079 C108.612883,14.7799661 109.668421,14.5151492 111.04136,14.5151492 L112.325253,14.5151492 L112.325253,13.9053486 C112.325253,13.4243766 112.190259,13.0393185 111.920267,12.7501628 C111.650274,12.461007 111.239548,12.3164313 110.688074,12.3164313 C110.21128,12.3164313 109.820659,12.435241 109.516199,12.6728641 C109.21174,12.9104871 109.059513,13.2125215 109.059513,13.5789764 L106.965648,13.5789764 C106.965648,13.0693751 107.135109,12.5927047 107.474035,12.1489508 C107.812961,11.7051969 108.273952,11.3573564 108.85702,11.1054187 C109.440088,10.853481 110.090644,10.727514 110.808709,10.727514 C111.900166,10.727514 112.770447,11.0009196 113.419577,11.5477389 C114.068707,12.0945582 114.401884,12.8632429 114.419118,13.8538161 L114.419118,18.0451222 C114.419118,18.8810973 114.536878,19.5481496 114.772403,20.0462991 L114.772403,20.1923077 L112.635455,20.1923077 Z M110.334789,18.6892778 C110.748394,18.6892778 111.137579,18.5890769 111.502355,18.3886719 C111.867132,18.1882669 112.141428,17.9191557 112.325253,17.5813301 L112.325253,15.8292268 L111.196461,15.8292268 C110.420952,15.8292268 109.837893,15.9637824 109.447266,16.2328976 C109.056639,16.5020129 108.861328,16.8827767 108.861328,17.3752003 C108.861328,17.7760103 108.994886,18.095222 109.262006,18.3328451 C109.529126,18.5704681 109.886717,18.6892778 110.334789,18.6892778 Z M118.555147,10.8992889 L118.615464,11.9728816 C119.304806,11.1426324 120.209553,10.727514 121.329733,10.727514 C123.271379,10.727514 124.259421,11.8354507 124.293888,14.0513572 L124.293888,20.1923077 L122.200023,20.1923077 L122.200023,14.1715996 C122.200023,13.5818363 122.072209,13.1452463 121.816579,12.8618164 C121.560948,12.5783865 121.143041,12.4366737 120.562845,12.4366737 C119.718401,12.4366737 119.089386,12.8174374 118.675781,13.5789764 L118.675781,20.1923077 L116.581916,20.1923077 L116.581916,10.8992889 L118.555147,10.8992889 Z M130.256664,18.6978666 C130.779414,18.6978666 131.213119,18.5461337 131.55779,18.2426633 C131.90246,17.9391929 132.086282,17.5641549 132.10926,17.1175381 L134.082491,17.1175381 C134.059513,17.6958496 133.878563,18.2355035 133.539637,18.7365159 C133.200711,19.2375284 132.741156,19.634038 132.16096,19.9260567 C131.580765,20.2180754 130.954622,20.3640825 130.282514,20.3640825 C128.978509,20.3640825 127.944512,19.9432384 127.180492,19.1015375 C126.416471,18.2598365 126.034467,17.0975051 126.034467,15.6145082 L126.034467,15.3997897 C126.034467,13.9855031 126.413599,12.8532319 127.171875,12.0029422 C127.930151,11.1526525 128.964148,10.727514 130.273897,10.727514 C131.382588,10.727514 132.2859,11.0495886 132.983858,11.6937475 C133.681816,12.3379064 134.048024,13.183889 134.082491,14.2317208 L132.10926,14.2317208 C132.086282,13.6992161 131.903896,13.2611946 131.562098,12.9176432 C131.220299,12.5740918 130.785159,12.4023187 130.256664,12.4023187 C129.578811,12.4023187 129.056068,12.6470954 128.688419,13.1366561 C128.32077,13.6262169 128.134076,14.3691356 128.128332,15.3654347 L128.128332,15.7003956 C128.128332,16.7081464 128.310717,17.4596538 128.675494,17.9549404 C129.040271,18.450227 129.567322,18.6978666 130.256664,18.6978666 Z M139.769531,20.3640825 C138.442549,20.3640825 137.366904,19.9475327 136.542567,19.1144206 C135.718229,18.2813084 135.306066,17.1719404 135.306066,15.7862831 L135.306066,15.5286208 C135.306066,14.601032 135.48558,13.7722267 135.844612,13.04218 C136.203644,12.3121333 136.707717,11.7438505 137.356847,11.3373147 C138.005978,10.9307789 138.729775,10.727514 139.528263,10.727514 C140.7978,10.727514 141.778662,11.1311809 142.470875,11.9385266 C143.163089,12.7458724 143.509191,13.8881637 143.509191,15.3654347 L143.509191,16.2071314 L137.417165,16.2071314 C137.480354,16.9743962 137.737417,17.5813279 138.188362,18.0279447 C138.639306,18.4745615 139.206568,18.6978666 139.890165,18.6978666 C140.849499,18.6978666 141.630741,18.3113771 142.233915,17.5383864 L143.362707,18.6119792 C142.989313,19.1673873 142.490984,19.5982515 141.867705,19.9045848 C141.244425,20.2109182 140.545041,20.3640825 139.769531,20.3640825 Z M139.519646,12.4023187 C138.945195,12.4023187 138.481332,12.6027207 138.128045,13.0035306 C137.774757,13.4043406 137.549288,13.9626033 137.451631,14.6783353 L141.441176,14.6783353 L141.441176,14.523738 C141.39522,13.8251835 141.208526,13.2969811 140.881089,12.9391151 C140.553652,12.581249 140.099842,12.4023187 139.519646,12.4023187 Z M53.6970358,40.2948718 L51.5256204,40.2948718 L51.5256204,27.7896635 L53.6970358,27.7896635 L53.6970358,40.2948718 Z M58.1174173,31.001853 L58.1777344,32.0754457 C58.8670761,31.2451965 59.7718234,30.8300781 60.8920037,30.8300781 C62.8336494,30.8300781 63.821691,31.9380148 63.8561581,34.1539213 L63.8561581,40.2948718 L61.7622932,40.2948718 L61.7622932,34.2741637 C61.7622932,33.6844004 61.6344797,33.2478104 61.3788488,32.9643805 C61.1232179,32.6809506 60.7053108,32.5392378 60.1251149,32.5392378 C59.2806713,32.5392378 58.6516565,32.9200015 58.2380515,33.6815405 L58.2380515,40.2948718 L56.1441866,40.2948718 L56.1441866,31.001853 L58.1174173,31.001853 Z M71.2148438,37.7697817 C71.2148438,37.397601 71.0611803,37.1141753 70.7538488,36.9194962 C70.4465173,36.7248171 69.9366993,36.5530439 69.2243796,36.4041717 C68.5120599,36.2552994 67.9175116,36.066349 67.4407169,35.8373147 C66.3952154,35.3334393 65.8724724,34.6034036 65.8724724,33.6471855 C65.8724724,32.8455656 66.2113937,32.1756504 66.8892463,31.6374199 C67.567099,31.0991893 68.4287632,30.8300781 69.4742647,30.8300781 C70.5887004,30.8300781 71.4891395,31.1049151 72.1756089,31.6545974 C72.8620783,32.2042796 73.2053079,32.917138 73.2053079,33.7931941 L71.111443,33.7931941 C71.111443,33.3923841 70.9620879,33.058858 70.6633732,32.7926057 C70.3646584,32.5263533 69.9682929,32.3932292 69.4742647,32.3932292 C69.0147036,32.3932292 68.6398797,32.4991559 68.3497817,32.7110126 C68.0596838,32.9228693 67.9146369,33.206295 67.9146369,33.5612981 C67.9146369,33.881946 68.049631,34.1310171 68.3196232,34.3085186 C68.5896153,34.4860202 69.135336,34.6649505 69.9568015,34.845315 C70.778267,35.0256795 71.423079,35.2403959 71.8912569,35.4894707 C72.3594348,35.7385454 72.7069727,36.0377169 72.933881,36.3869942 C73.1607893,36.7362714 73.2742417,37.1599785 73.2742417,37.658128 C73.2742417,38.4941031 72.9267038,39.1711755 72.2316176,39.6893655 C71.5365315,40.2075555 70.6260396,40.4666466 69.5001149,40.4666466 C68.7360945,40.4666466 68.0553798,40.3292281 67.4579504,40.054387 C66.8605209,39.7795459 66.3952223,39.401645 66.0620404,38.9206731 C65.7288586,38.4397011 65.5622702,37.9215189 65.5622702,37.3661108 L67.595818,37.3661108 C67.6245406,37.8585344 67.8112345,38.2378668 68.1559053,38.5041191 C68.5005762,38.7703714 68.9572582,38.9034956 69.5259651,38.9034956 C70.0774384,38.9034956 70.4967817,38.7990003 70.7840074,38.5900065 C71.0712331,38.3810127 71.2148438,38.1076072 71.2148438,37.7697817 Z M77.7204733,28.7430138 L77.7204733,31.001853 L79.3662684,31.001853 L79.3662684,32.5478265 L77.7204733,32.5478265 L77.7204733,37.7354267 C77.7204733,38.0904298 77.7908426,38.346658 77.9315832,38.5041191 C78.0723238,38.6615801 78.3236425,38.7403095 78.6855469,38.7403095 C78.9268165,38.7403095 79.1709546,38.7116806 79.4179688,38.6544221 L79.4179688,40.2691056 C78.9411741,40.4008003 78.4816199,40.4666466 78.0392923,40.4666466 C76.4308284,40.4666466 75.6266085,39.5820151 75.6266085,37.8127254 L75.6266085,32.5478265 L74.0928309,32.5478265 L74.0928309,31.001853 L75.6266085,31.001853 L75.6266085,28.7430138 L77.7204733,28.7430138 Z M83.1920956,40.2948718 L81.0982307,40.2948718 L81.0982307,31.001853 L83.1920956,31.001853 L83.1920956,40.2948718 Z M80.9689798,28.5884165 C80.9689798,28.2677685 81.0709434,28.0015202 81.2748736,27.7896635 C81.4788039,27.5778068 81.7703336,27.47188 82.1494715,27.47188 C82.5286094,27.47188 82.8215753,27.5778068 83.0283778,27.7896635 C83.2351803,28.0015202 83.33858,28.2677685 83.33858,28.5884165 C83.33858,28.9033386 83.2351803,29.1652926 83.0283778,29.3742864 C82.8215753,29.5832801 82.5286094,29.6877754 82.1494715,29.6877754 C81.7703336,29.6877754 81.4788039,29.5832801 81.2748736,29.3742864 C81.0709434,29.1652926 80.9689798,28.9033386 80.9689798,28.5884165 Z M88.0950138,28.7430138 L88.0950138,31.001853 L89.7408088,31.001853 L89.7408088,32.5478265 L88.0950138,32.5478265 L88.0950138,37.7354267 C88.0950138,38.0904298 88.165383,38.346658 88.3061236,38.5041191 C88.4468642,38.6615801 88.6981829,38.7403095 89.0600873,38.7403095 C89.3013569,38.7403095 89.5454951,38.7116806 89.7925092,38.6544221 L89.7925092,40.2691056 C89.3157145,40.4008003 88.8561603,40.4666466 88.4138327,40.4666466 C86.8053688,40.4666466 86.0011489,39.5820151 86.0011489,37.8127254 L86.0011489,32.5478265 L84.4673713,32.5478265 L84.4673713,31.001853 L86.0011489,31.001853 L86.0011489,28.7430138 L88.0950138,28.7430138 Z M96.987477,39.3844651 C96.372814,40.1059231 95.499661,40.4666466 94.3679917,40.4666466 C93.3569573,40.4666466 92.5915123,40.1717694 92.0716337,39.5820062 C91.5517552,38.992243 91.2918199,38.1391031 91.2918199,37.0225611 L91.2918199,31.001853 L93.3856847,31.001853 L93.3856847,36.9967949 C93.3856847,38.1763213 93.8768333,38.7660757 94.8591452,38.7660757 C95.8759242,38.7660757 96.5623833,38.4024893 96.9185432,37.6753055 L96.9185432,31.001853 L99.0124081,31.001853 L99.0124081,40.2948718 L97.0391774,40.2948718 L96.987477,39.3844651 Z M103.768842,28.7430138 L103.768842,31.001853 L105.414637,31.001853 L105.414637,32.5478265 L103.768842,32.5478265 L103.768842,37.7354267 C103.768842,38.0904298 103.839211,38.346658 103.979952,38.5041191 C104.120692,38.6615801 104.372011,38.7403095 104.733915,38.7403095 C104.975185,38.7403095 105.219323,38.7116806 105.466337,38.6544221 L105.466337,40.2691056 C104.989543,40.4008003 104.529988,40.4666466 104.087661,40.4666466 C102.479197,40.4666466 101.674977,39.5820151 101.674977,37.8127254 L101.674977,32.5478265 L100.141199,32.5478265 L100.141199,31.001853 L101.674977,31.001853 L101.674977,28.7430138 L103.768842,28.7430138 Z M111.118911,40.4666466 C109.791928,40.4666466 108.716284,40.0500968 107.891946,39.2169847 C107.067608,38.3838725 106.655446,37.2745045 106.655446,35.8888472 L106.655446,35.6311849 C106.655446,34.7035961 106.834959,33.8747908 107.193991,33.1447441 C107.553023,32.4146974 108.057097,31.8464146 108.706227,31.4398788 C109.355357,31.033343 110.079155,30.8300781 110.877642,30.8300781 C112.14718,30.8300781 113.128041,31.233745 113.820255,32.0410907 C114.512469,32.8484365 114.858571,33.9907278 114.858571,35.4679988 L114.858571,36.3096955 L108.766544,36.3096955 C108.829734,37.0769603 109.086797,37.683892 109.537741,38.1305088 C109.988686,38.5771256 110.555948,38.8004307 111.239545,38.8004307 C112.198879,38.8004307 112.980121,38.4139412 113.583295,37.6409505 L114.712086,38.7145433 C114.338693,39.2699514 113.840364,39.7008156 113.217084,40.0071489 C112.593804,40.3134823 111.89442,40.4666466 111.118911,40.4666466 Z M110.869026,32.5048828 C110.294574,32.5048828 109.830712,32.7052848 109.477424,33.1060948 C109.124137,33.5069047 108.898668,34.0651674 108.801011,34.7808994 L112.790556,34.7808994 L112.790556,34.6263021 C112.7446,33.9277476 112.557906,33.3995452 112.230469,33.0416792 C111.903031,32.6838131 111.449222,32.5048828 110.869026,32.5048828 Z" id="Compliance-Institute" fill="#040404"></path>
            <g id="Logo_Main" fill-rule="nonzero">
                <g id="Shield" fill="url(#linearGradient-1)">
                    <g id="Back_Shield">
                        <path d="M37.8151261,30.440126 C37.8151261,38.9365014 21.7229932,47.0223229 18.919691,48.3653208 C13.27497,45.5018823 0,37.3151619 0,30.440126 C0,22.4378069 0.0464329414,4.36648282 0.105340404,2.69960903e-15 L37.8151261,0 L37.8151261,30.440126 Z"></path>
                    </g>
                </g>
                <g id="IC" transform="translate(11.103165, 9.514911)">
                    <polygon id="Line-2" fill="url(#linearGradient-2)" points="0 0 5.22975148 2.70736641 5.22975148 18.2396757 0 20.9650582"></polygon>
                    <path d="M15.5942532,0 L15.5942532,5.21579034 C12.5616376,5.21579034 10.103217,7.57433111 10.103217,10.4837386 C10.103217,13.3931461 12.5616376,15.7516868 15.5942532,15.7516868 L15.5942532,20.9674772 C9.55904798,20.9674772 4.66654747,16.2737475 4.66654747,10.4837386 C4.66654747,4.69372965 9.55904798,0 15.5942532,0 Z" id="Oval-2" fill="#FFFFFF"></path>
                </g>
            </g>
        </g>
    </g>
</svg>