<?xml version="1.0" encoding="UTF-8"?>
<svg width="77px" height="71px" viewBox="0 0 77 71" version="1.1" xmlns="http://www.w3.org/2000/svg" xmlns:xlink="http://www.w3.org/1999/xlink">
    <!-- Generator: Sketch 49 (51002) - http://www.bohemiancoding.com/sketch -->
    <title>Fas</title>
    <desc>Created with Sketch.</desc>
    <defs></defs>
    <g id="Main" stroke="none" stroke-width="1" fill="none" fill-rule="evenodd">
        <g id="Главная-страница_2" transform="translate(-450.000000, -523.000000)" fill="#F03333" fill-rule="nonzero">
            <g id="Block_2" transform="translate(339.000000, 490.000000)">
                <g id="Fas" transform="translate(111.000000, 33.000000)">
                    <path d="M75.6063,34.4498 L74.69,34.4498 L65.6194,15.5925 C66.8618869,14.5226695 67.3628255,12.8244239 66.8998732,11.2515328 C66.4369208,9.67864176 65.0958608,8.52255553 63.4719251,8.29640518 C61.8479894,8.07025483 60.2420867,8.81594511 59.367,10.2025 L55.517,7.2149 C51.8656843,4.38528247 47.1480778,3.31937975 42.6349,4.3043 C42.3399289,2.24955588 40.5796586,0.723937484 38.50385,0.723937484 C36.4280414,0.723937484 34.6677711,2.24955588 34.3728,4.3043 C29.846415,3.31623841 25.1150302,4.39116839 21.4599,7.238 L17.6099,10.2256 C16.7348133,8.83904511 15.1289106,8.09335483 13.5049749,8.31950518 C11.8810392,8.54565553 10.5399792,9.70174176 10.0770268,11.2746328 C9.6140745,12.8475239 10.1150131,14.5457695 11.3575,15.6156 L2.31,34.4498 L1.3937,34.4498 C1.09587503,34.4510084 0.812021635,34.5762572 0.610375636,34.7954376 C0.408729637,35.014618 0.307528472,35.3079068 0.3311,35.6048 C0.940853538,42.7442981 6.91396099,48.2290131 14.07945,48.2290131 C21.244939,48.2290131 27.2180465,42.7442981 27.8278,35.6048 C27.8513715,35.3079068 27.7501704,35.014618 27.5485244,34.7954376 C27.3468784,34.5762572 27.063025,34.4510084 26.7652,34.4498 L25.8566,34.4498 L16.7629,15.5925 L16.8399,15.5232 L21.6909,12.5587 C24.8845528,10.6121431 28.8209992,10.3254391 32.263,11.7887 C32.7643951,11.9720881 33.2792769,12.116255 33.803,12.2199 L33.803,57.6961 L14.2373,63.91 C12.9387314,64.3108834 12.0563933,65.5154939 12.0659,66.8745 L12.0659,67.0747 C12.0659,68.775737 13.444863,70.1547 15.1459,70.1547 L61.8233,70.1547 C63.524337,70.1547 64.9033,68.775737 64.9033,67.0747 L64.9033,66.836 C64.900155,65.4995434 64.0354823,64.3176167 62.7627,63.91 L43.2201,57.75 L43.2201,12.2045 C43.743816,12.1008249 44.2586954,11.9566586 44.7601,11.7733 C48.2021008,10.3100391 52.1385472,10.5967431 55.3322,12.5433 L60.1832,15.5078 L60.2602,15.5771 L51.1434,34.4498 L50.2502,34.4498 C49.952375,34.4510084 49.6685216,34.5762572 49.4668756,34.7954376 C49.2652296,35.014618 49.1640285,35.3079068 49.1876,35.6048 C49.8188221,42.7253232 55.7836532,48.1847738 62.9321,48.1847738 C70.0805468,48.1847738 76.0453779,42.7253232 76.6766,35.6048 C76.7002765,35.3065721 76.5980546,35.0120467 76.3947112,34.7926113 C76.1913678,34.5731759 75.9054648,34.4488616 75.6063,34.4498 Z M21.3675,34.4498 L6.7375,34.4498 L14.0371,19.3039 L21.3675,34.4498 Z M55.6248,34.4498 L62.9244,19.3039 L70.224,34.4498 L55.6248,34.4498 Z" id="Shape"></path>
                </g>
            </g>
        </g>
    </g>
</svg>