<?xml version="1.0" encoding="UTF-8"?>
<svg width="152px" height="48px" viewBox="0 0 152 48" version="1.1" xmlns="http://www.w3.org/2000/svg" xmlns:xlink="http://www.w3.org/1999/xlink">
    <!-- Generator: Sketch 49.3 (51167) - http://www.bohemiancoding.com/sketch -->
    <title>Group</title>
    <desc>Created with Sketch.</desc>
    <defs>
        <linearGradient x1="100%" y1="0%" x2="18.2666016%" y2="82.9676534%" id="linearGradient-1">
            <stop stop-color="#FF4242" offset="0%"></stop>
            <stop stop-color="#E02323" offset="100%"></stop>
        </linearGradient>
        <linearGradient x1="161.466346%" y1="43.6718762%" x2="50%" y2="43.6718762%" id="linearGradient-2">
            <stop stop-color="#EBEBEB" stop-opacity="0.845674819" offset="0%"></stop>
            <stop stop-color="#FFFFFF" offset="100%"></stop>
        </linearGradient>
    </defs>
    <g id="Page-1" stroke="none" stroke-width="1" fill="none" fill-rule="evenodd">
        <g id="Group">
            <path d="M58.6669863,8 L60.8415911,8 L60.8415911,20.3859991 L58.6669863,20.3859991 L58.6669863,11.5643775 L53.1746048,20.3859991 L51,20.3859991 L51,8 L53.1746048,8 L53.1746048,16.8301285 L58.6669863,8 Z M71.1215413,20.3859991 L69.0328892,20.3859991 L69.0328892,16.668498 L65.414278,16.668498 L65.414278,20.3859991 L63.3256259,20.3859991 L63.3256259,11.1815685 L65.414278,11.1815685 L65.414278,15.0181657 L69.0328892,15.0181657 L69.0328892,11.1815685 L71.1215413,11.1815685 L71.1215413,20.3859991 Z M77.1640204,18.9058042 C77.6854697,18.9058042 78.1180943,18.7555177 78.4619071,18.4549402 C78.8057198,18.1543627 78.9890839,17.7828999 79.0120047,17.3405405 L80.980323,17.3405405 C80.9574021,17.9133392 80.7769031,18.4478486 80.4388206,18.9440851 C80.100738,19.4403215 79.6423279,19.8330513 79.0635764,20.1222862 C78.4848249,20.4115212 77.8602411,20.5561365 77.1898062,20.5561365 C75.8890479,20.5561365 74.8576251,20.1393041 74.0955068,19.3056269 C73.3333885,18.4719498 72.9523351,17.3206985 72.9523351,15.8518387 L72.9523351,15.639167 C72.9523351,14.2383625 73.3305235,13.116885 74.0869115,12.2747009 C74.8432996,11.4325168 75.8747224,11.0114311 77.1812109,11.0114311 C78.287142,11.0114311 79.1882044,11.3304354 79.8844253,11.9684537 C80.5806461,12.606472 80.9459417,13.44439 80.980323,14.4822331 L79.0120047,14.4822331 C78.9890839,13.9548046 78.8071524,13.5209587 78.4662047,13.1806823 C78.125257,12.8404059 77.6911999,12.6702703 77.1640204,12.6702703 C76.4878553,12.6702703 75.9664137,12.9127136 75.5996801,13.3976074 C75.2329465,13.8825013 75.0467174,14.618338 75.0409872,15.6051396 L75.0409872,15.9369074 C75.0409872,16.9350515 75.2229187,17.679395 75.5867872,18.1699601 C75.9506557,18.6605253 76.4763949,18.9058042 77.1640204,18.9058042 Z M89.8764337,12.8233939 L86.8594918,12.8233939 L86.8594918,20.3859991 L84.7708397,20.3859991 L84.7708397,12.8233939 L81.7882789,12.8233939 L81.7882789,11.1815685 L89.8764337,11.1815685 L89.8764337,12.8233939 Z M97.0706798,11.1815685 L99.1507366,11.1815685 L99.1507366,20.3859991 L97.0706798,20.3859991 L97.0706798,14.2440408 L93.4262827,20.3859991 L91.3462259,20.3859991 L91.3462259,11.1815685 L93.4262827,11.1815685 L93.4262827,17.3235268 L97.0706798,11.1815685 Z M108.691493,12.8233939 L105.674551,12.8233939 L105.674551,20.3859991 L103.585899,20.3859991 L103.585899,12.8233939 L100.603338,12.8233939 L100.603338,11.1815685 L108.691493,11.1815685 L108.691493,12.8233939 Z M113.332942,17.4256092 L115.223903,11.1815685 L117.450079,11.1815685 L113.754111,21.7811254 C113.18682,23.329383 112.224158,24.1035002 110.866098,24.1035002 C110.562397,24.1035002 110.227184,24.0524595 109.860451,23.9503766 L109.860451,22.3510855 L110.255833,22.3766061 C110.783013,22.3766061 111.179824,22.2816137 111.446279,22.0916261 C111.712734,21.9016384 111.923316,21.5826341 112.078032,21.1346035 L112.378866,20.3434648 L109.112662,11.1815685 L111.364624,11.1815685 L113.332942,17.4256092 Z M125.967998,12.8233939 L122.951056,12.8233939 L122.951056,20.3859991 L120.862404,20.3859991 L120.862404,12.8233939 L117.879843,12.8233939 L117.879843,11.1815685 L125.967998,11.1815685 L125.967998,12.8233939 Z M54.704564,34.9886449 L53.2261765,34.9886449 L53.2261765,40.2969302 L51.0601669,40.2969302 L51.0601669,27.9109311 L53.2261765,27.9109311 L53.2261765,33.117134 L54.4209199,33.117134 L58.099698,27.9109311 L60.7642336,27.9109311 L56.4665956,33.8402177 L61.1424258,40.2969302 L58.5294618,40.2969302 L54.704564,34.9886449 Z M61.7526904,35.6096462 C61.7526904,34.7079137 61.9331894,33.895516 62.2941928,33.1724286 C62.6551962,32.4493413 63.1623124,31.8935648 63.8155566,31.5050826 C64.4688009,31.1166004 65.2194475,30.9223622 66.067519,30.9223622 C67.3224355,30.9223622 68.3409656,31.322181 69.1231396,32.1218305 C69.9053136,32.92148 70.3279105,33.9819923 70.3909428,35.3033989 L70.3995381,35.7882904 C70.3995381,36.6956941 70.2233367,37.5066741 69.8709286,38.2212545 C69.5185205,38.935835 69.0142694,39.4887758 68.35816,39.8800937 C67.7020507,40.2714115 66.9442414,40.4670675 66.0847095,40.4670675 C64.7724908,40.4670675 63.7224451,40.0346394 62.9345408,39.1697702 C62.1466366,38.304901 61.7526904,37.152232 61.7526904,35.7117286 L61.7526904,35.6096462 Z M63.8413425,35.7882904 C63.8413425,36.7353931 64.0390318,37.4769009 64.4344165,38.0128363 C64.8298012,38.5487716 65.3798934,38.8167352 66.0847095,38.8167352 C66.7895257,38.8167352 67.3381853,38.5445182 67.7307049,38.000076 C68.1232245,37.4556337 68.3194813,36.6588318 68.3194813,35.6096462 C68.3194813,34.6795573 68.1174943,33.9423029 67.7135143,33.3978606 C67.3095343,32.8534184 66.7608747,32.5812013 66.067519,32.5812013 C65.3856237,32.5812013 64.8441267,32.849165 64.4430118,33.3851003 C64.0418969,33.9210357 63.8413425,34.722091 63.8413425,35.7882904 Z M77.6883322,37.7533768 L80.4388206,31.0924995 L83.0517845,31.0924995 L83.0517845,40.2969302 L80.9631324,40.2969302 L80.9631324,34.206013 L78.4017401,40.2969302 L76.9835196,40.2969302 L74.413532,34.1719856 L74.413532,40.2969302 L72.3248799,40.2969302 L72.3248799,31.0924995 L74.9550344,31.0924995 L77.6883322,37.7533768 Z M93.280163,40.2969302 L91.1915109,40.2969302 L91.1915109,32.7598456 L87.5643044,32.7598456 L87.5643044,40.2969302 L85.4756523,40.2969302 L85.4756523,31.0924995 L93.280163,31.0924995 L93.280163,40.2969302 Z M103.405398,31.0924995 L103.405398,40.2969302 L101.316746,40.2969302 L101.316746,32.7598456 L98.6865917,32.7598456 L98.5146862,35.9669346 C98.4058121,37.509521 98.106413,38.6168205 97.6164798,39.2888664 C97.1265466,39.9609123 96.3773325,40.2969302 95.3688151,40.2969302 L94.7241694,40.2969302 L94.7155741,38.5785429 L95.1453379,38.5360086 C95.6037549,38.4736246 95.9375348,38.1971542 96.1466876,37.706589 C96.3558404,37.2160239 96.4890658,36.3213939 96.5463679,35.0226723 L96.7182735,31.0924995 L103.405398,31.0924995 Z M111.184123,40.2969302 C111.09244,40.1211207 111.012218,39.8347257 110.943455,39.4377366 C110.278751,40.1239606 109.465073,40.4670675 108.502397,40.4670675 C107.568372,40.4670675 106.806265,40.2033573 106.216054,39.6759289 C105.625842,39.1485004 105.33074,38.4963138 105.33074,37.7193493 C105.33074,36.738219 105.698901,35.9853688 106.435233,35.460776 C107.171565,34.9361832 108.224476,34.6738908 109.593997,34.6738908 L110.874693,34.6738908 L110.874693,34.0699032 C110.874693,33.5935162 110.740035,33.2121288 110.470715,32.9257295 C110.201395,32.6393302 109.791691,32.4961327 109.241591,32.4961327 C108.765983,32.4961327 108.376334,32.6138098 108.072633,32.8491677 C107.768932,33.0845255 107.617084,33.3836807 107.617084,33.7466422 L105.528431,33.7466422 C105.528431,33.2418989 105.69747,32.7697724 106.035553,32.3302487 C106.373635,31.8907251 106.833478,31.5462004 107.415095,31.2966643 C107.996711,31.0471283 108.645648,30.9223622 109.361925,30.9223622 C110.450665,30.9223622 111.318779,31.1931614 111.966293,31.734768 C112.613807,32.2763746 112.946155,33.0377317 112.963345,34.018862 L112.963345,38.1702133 C112.963345,38.9982192 113.080813,39.6589127 113.315752,40.1523134 L113.315752,40.2969302 L111.184123,40.2969302 Z M108.889184,38.8082284 C109.30176,38.8082284 109.689976,38.7089826 110.053844,38.510488 C110.417713,38.3119934 110.691326,38.0454476 110.874693,37.7108425 L110.874693,35.9754415 L109.748712,35.9754415 C108.975133,35.9754415 108.393525,36.1087144 108.003871,36.3752643 C107.614216,36.6418141 107.419392,37.0189481 107.419392,37.5066776 C107.419392,37.9036668 107.552618,38.2198355 107.819073,38.4551934 C108.085527,38.6905512 108.442228,38.8082284 108.889184,38.8082284 Z M119.246492,40.4670675 C117.922813,40.4670675 116.849847,40.0544886 116.027561,39.2293183 C115.205276,38.404148 114.794139,37.3053553 114.794139,35.9329071 L114.794139,35.6777011 C114.794139,34.7589548 114.973206,33.9380503 115.331344,33.214963 C115.689482,32.4918756 116.192301,31.9290102 116.839815,31.5263498 C117.487329,31.1236894 118.209325,30.9223622 119.005824,30.9223622 C120.272201,30.9223622 121.25062,31.322181 121.941111,32.1218305 C122.631602,32.92148 122.976842,34.0528821 122.976842,35.5160706 L122.976842,36.3497437 L116.899982,36.3497437 C116.963014,37.1096943 117.219437,37.7108402 117.669259,38.1531996 C118.119081,38.5955589 118.684931,38.8167352 119.366826,38.8167352 C120.323771,38.8167352 121.103069,38.43393 121.704741,37.6683081 L122.830722,38.7316666 C122.458258,39.2817801 121.96117,39.708537 121.339442,40.0119501 C120.717714,40.3153632 120.020071,40.4670675 119.246492,40.4670675 Z M118.997229,32.5812013 C118.424208,32.5812013 117.9615,32.7796929 117.609092,33.1766821 C117.256684,33.5736712 117.031776,34.1266121 116.934363,34.8355212 L120.913976,34.8355212 L120.913976,34.6823976 C120.868134,33.9905023 120.681905,33.4673351 120.355283,33.1128806 C120.028661,32.758426 119.575981,32.5812013 118.997229,32.5812013 Z M132.474622,40.2969302 L130.38597,40.2969302 L130.38597,36.5794291 L126.767359,36.5794291 L126.767359,40.2969302 L124.678707,40.2969302 L124.678707,31.0924995 L126.767359,31.0924995 L126.767359,34.9290968 L130.38597,34.9290968 L130.38597,31.0924995 L132.474622,31.0924995 L132.474622,40.2969302 Z M138.517101,38.8167352 C139.03855,38.8167352 139.471175,38.6664487 139.814988,38.3658713 C140.1588,38.0652938 140.342165,37.6938309 140.365085,37.2514716 L142.333404,37.2514716 C142.310483,37.8242702 142.129984,38.3587797 141.791901,38.8550161 C141.453819,39.3512526 140.995409,39.7439824 140.416657,40.0332173 C139.837906,40.3224522 139.213322,40.4670675 138.542887,40.4670675 C137.242129,40.4670675 136.210706,40.0502352 135.448587,39.216558 C134.686469,38.3828808 134.305416,37.2316296 134.305416,35.7627698 L134.305416,35.5500981 C134.305416,34.1492936 134.683604,33.0278161 135.439992,32.185632 C136.19638,31.3434479 137.227803,30.9223622 138.534292,30.9223622 C139.640223,30.9223622 140.541285,31.2413665 141.237506,31.8793848 C141.933727,32.517403 142.299022,33.3553211 142.333404,34.3931641 L140.365085,34.3931641 C140.342165,33.8657357 140.160233,33.4318898 139.819285,33.0916134 C139.478338,32.751337 139.044281,32.5812013 138.517101,32.5812013 C137.840936,32.5812013 137.319494,32.8236446 136.952761,33.3085385 C136.586027,33.7934324 136.399798,34.5292691 136.394068,35.5160706 L136.394068,35.8478385 C136.394068,36.8459826 136.575999,37.590326 136.939868,38.0808912 C137.303736,38.5714563 137.829475,38.8167352 138.517101,38.8167352 Z M149.467483,40.2969302 C149.375799,40.1211207 149.295578,39.8347257 149.226815,39.4377366 C148.56211,40.1239606 147.748432,40.4670675 146.785757,40.4670675 C145.851732,40.4670675 145.089625,40.2033573 144.499413,39.6759289 C143.909201,39.1485004 143.6141,38.4963138 143.6141,37.7193493 C143.6141,36.738219 143.98226,35.9853688 144.718593,35.460776 C145.454925,34.9361832 146.507836,34.6738908 147.877357,34.6738908 L149.158053,34.6738908 L149.158053,34.0699032 C149.158053,33.5935162 149.023395,33.2121288 148.754075,32.9257295 C148.484755,32.6393302 148.075051,32.4961327 147.52495,32.4961327 C147.049343,32.4961327 146.659694,32.6138098 146.355993,32.8491677 C146.052292,33.0845255 145.900443,33.3836807 145.900443,33.7466422 L143.811791,33.7466422 C143.811791,33.2418989 143.98083,32.7697724 144.318912,32.3302487 C144.656995,31.8907251 145.116838,31.5462004 145.698454,31.2966643 C146.280071,31.0471283 146.929008,30.9223622 147.645284,30.9223622 C148.734025,30.9223622 149.602139,31.1931614 150.249653,31.734768 C150.897167,32.2763746 151.229514,33.0377317 151.246705,34.018862 L151.246705,38.1702133 C151.246705,38.9982192 151.364172,39.6589127 151.599111,40.1523134 L151.599111,40.2969302 L149.467483,40.2969302 Z M147.172544,38.8082284 C147.585119,38.8082284 147.973335,38.7089826 148.337204,38.510488 C148.701072,38.3119934 148.974686,38.0454476 149.158053,37.7108425 L149.158053,35.9754415 L148.032072,35.9754415 C147.258493,35.9754415 146.676885,36.1087144 146.287231,36.3752643 C145.897576,36.6418141 145.702752,37.0189481 145.702752,37.5066776 C145.702752,37.9036668 145.835977,38.2198355 146.102432,38.4551934 C146.368887,38.6905512 146.725587,38.8082284 147.172544,38.8082284 Z" id="Институт-Комплаенса" fill="#040404"></path>
            <g id="Logo_Main" fill-rule="nonzero">
                <g id="Shield" fill="url(#linearGradient-1)">
                    <g id="Back_Shield">
                        <path d="M37.720983,30.1499475 C37.720983,38.5653288 21.6689125,46.5740702 18.8725893,47.9042656 C13.2419212,45.0681235 0,36.9594452 0,30.1499475 C0,22.2239126 0.0463173438,4.32485816 0.105078153,2.67387429e-15 L37.720983,0 L37.720983,30.1499475 Z"></path>
                    </g>
                </g>
                <g id="IC" transform="translate(11.075523, 9.424208)">
                    <polygon id="Line-2" fill="url(#linearGradient-2)" points="0 0 5.21673169 2.68155772 5.21673169 18.0658012 0 20.7652033"></polygon>
                    <path d="M15.5554304,0 L15.5554304,5.16606944 C12.5303647,5.16606944 10.0780644,7.50212679 10.0780644,10.3837996 C10.0780644,13.2654723 12.5303647,15.6015297 15.5554304,15.6015297 L15.5554304,20.7675991 C9.53525015,20.7675991 4.65492982,16.1186137 4.65492982,10.3837996 C4.65492982,4.64898542 9.53525015,0 15.5554304,0 Z" id="Oval-2" fill="#FFFFFF"></path>
                </g>
            </g>
        </g>
    </g>
</svg>