<?xml version="1.0" encoding="UTF-8"?>
<svg width="20px" height="21px" viewBox="0 0 20 21" version="1.1" xmlns="http://www.w3.org/2000/svg" xmlns:xlink="http://www.w3.org/1999/xlink">
    <!-- Generator: Sketch 49 (51002) - http://www.bohemiancoding.com/sketch -->
    <title>Search</title>
    <desc>Created with Sketch.</desc>
    <defs></defs>
    <g id="Main" stroke="none" stroke-width="1" fill="none" fill-rule="evenodd">
        <g id="Главная-страница_2" transform="translate(-1173.000000, -21.000000)" fill="#E5E5E5" fill-rule="nonzero">
            <g id="Menu" transform="translate(0.000000, 1.000000)">
                <g id="Search" transform="translate(1173.000000, 20.000000)">
                    <path d="M19.625,18.84375 L14.4375,13.625 C15.65625,12.21875 16.34375,10.34375 16.34375,8.375 C16.34375,3.875 12.6875,0.21875 8.1875,0.21875 C3.6875,0.21875 0,3.875 0,8.375 C0,12.875 3.65625,16.5625 8.15625,16.5625 C9.75,16.5625 11.21875,16.09375 12.46875,15.3125 L17.8125,20.65625 C18.0625,20.90625 18.40625,21.03125 18.71875,21.03125 C19.03125,21.03125 19.375,20.90625 19.625,20.65625 C20.125,20.125 20.125,19.3125 19.625,18.84375 Z M8.1875,13.96875 C5.09375,13.96875 2.59375,11.46875 2.59375,8.375 C2.59375,5.28125 5.09375,2.8125 8.1875,2.8125 C11.28125,2.8125 13.78125,5.3125 13.78125,8.40625 C13.78125,11.5 11.25,13.96875 8.1875,13.96875 Z" id="Shape"></path>
                </g>
            </g>
        </g>
    </g>
</svg>