<?xml version="1.0" encoding="UTF-8"?>
<svg width="54px" height="71px" viewBox="0 0 54 71" version="1.1" xmlns="http://www.w3.org/2000/svg" xmlns:xlink="http://www.w3.org/1999/xlink">
    <!-- Generator: Sketch 49 (51002) - http://www.bohemiancoding.com/sketch -->
    <title>Law_Order</title>
    <desc>Created with Sketch.</desc>
    <defs></defs>
    <g id="Main" stroke="none" stroke-width="1" fill="none" fill-rule="evenodd">
        <g id="Главная-страница_2" transform="translate(-1076.000000, -523.000000)" fill="#F03333" fill-rule="nonzero">
            <g id="Block_4" transform="translate(957.000000, 490.000000)">
                <g id="Law_Order" transform="translate(119.000000, 33.000000)">
                    <g id="Group" transform="translate(0.000000, 0.686140)">
                        <path d="M7.49188312,0 C3.27979409,0 0,3.96017612 0,7.49188312 C0,11.0235901 3.23325119,14.9837662 7.49188312,14.9837662 L53.2756133,14.9837662 C48.2810245,13.3189033 46.5480354,10.8216089 46.6161616,7.49188312 C46.5480363,4.16215729 48.2810245,1.66486291 53.2756133,0 L7.49188312,0 Z M0,15.8161977 L0,62.4323593 C0,66.352279 3.57193009,69.9242424 7.49188312,69.9242424 L53.2756133,69.9242424 L53.2756133,18.3134921 L5.8270202,18.3134921 C3.64392375,18.3134921 1.60104539,17.1670591 0,15.8161977 Z" id="Shape"></path>
                    </g>
                </g>
            </g>
        </g>
    </g>
</svg>